<svg version="1.0" xmlns="http://www.w3.org/2000/svg"
 width="345.000000pt" height="110.000000pt" viewBox="0 0 345.000000 110.000000"
 preserveAspectRatio="xMidYMid meet">
<link xmlns="http://www.w3.org/1999/xhtml" rel="stylesheet" href="styles.css" type="text/css"/>

<g transform="translate(0.000000,110.000000) scale(0.100000,-0.100000)"
fill="#000000" stroke="none">
<path class="logo-letters-white" d="M138 716 c-16 -12 -18 -36 -18 -240 l0 -226 30 0 29 0 3 98 c3 88 5
97 22 97 15 0 27 -21 55 -97 35 -96 37 -98 69 -98 17 0 32 5 32 10 0 6 -16 50
-35 98 -21 51 -31 88 -25 90 34 12 40 34 40 142 0 101 -2 110 -22 124 -29 20
-155 21 -180 2z m130 -45 c9 -5 12 -30 10 -87 l-3 -79 -47 -3 -48 -3 0 84 c0
46 3 87 7 90 9 10 65 8 81 -2z"/>
<path class="logo-letters-white" d="M1580 710 c-19 -19 -20 -33 -20 -220 0 -190 1 -201 21 -221 19 -19
30 -21 96 -17 90 4 103 16 103 96 l0 53 -32 -3 c-18 -2 -34 -9 -34 -15 -1 -7
-2 -29 -3 -49 -1 -35 -1 -35 -43 -32 l-43 3 0 178 c0 193 2 201 52 195 26 -3
28 -7 31 -50 3 -47 4 -48 38 -48 l34 0 0 55 c0 79 -19 95 -110 95 -57 0 -74
-4 -90 -20z"/>
<path class="logo-letters-white" d="M3250 659 c0 -22 -5 -32 -20 -36 -13 -3 -20 -14 -20 -29 0 -17 6 -24
20 -24 19 0 20 -7 20 -144 0 -138 1 -146 22 -160 12 -9 37 -16 55 -16 30 0 33
3 33 30 0 25 -4 30 -25 30 l-25 0 0 130 0 130 25 0 c20 0 25 5 25 25 0 20 -5
25 -25 25 -22 0 -25 4 -25 35 0 32 -2 35 -30 35 -27 0 -30 -3 -30 -31z"/>
<path class="logo-letters-white" d="M866 604 c-13 -13 -16 -43 -16 -169 0 -148 1 -154 22 -169 33 -24
139 -21 169 3 23 19 24 24 24 171 0 181 1 180 -111 180 -53 0 -77 -4 -88 -16z
m134 -170 l0 -135 -42 3 -43 3 -3 119 c-1 66 0 126 2 133 3 8 22 13 46 13 l40
0 0 -136z"/>
<path class="logo-letters-white" d="M1130 435 l0 -185 35 0 34 0 3 158 3 157 35 0 35 0 3 -157 3 -158 29
0 30 0 0 148 c0 160 4 172 52 172 l28 0 0 -160 0 -160 35 0 35 0 0 158 c0 192
-5 206 -74 210 -27 2 -54 -2 -62 -9 -11 -9 -18 -9 -26 -1 -16 16 -101 15 -116
0 -9 -9 -12 -9 -12 0 0 7 -14 12 -35 12 l-35 0 0 -185z"/>
<path class="logo-letters-white" d="M1859 603 c-10 -11 -15 -55 -17 -146 -5 -194 1 -207 106 -207 111 0
112 1 112 185 0 188 2 185 -109 185 -61 0 -82 -4 -92 -17z m136 -168 l0 -130
-42 -3 -43 -3 0 136 0 136 43 -3 42 -3 0 -130z"/>
<path class="logo-letters-white" d="M2130 435 l0 -185 35 0 34 0 3 158 3 157 29 3 c16 2 32 -2 37 -10 5
-7 9 -79 9 -160 l0 -148 30 0 30 0 0 168 c0 151 -2 171 -18 185 -22 20 -108
23 -115 5 -4 -10 -6 -10 -6 0 -1 7 -15 12 -36 12 l-35 0 0 -185z"/>
<path class="logo-letters-white" d="M2410 435 l0 -185 35 0 34 0 3 158 3 157 35 0 35 0 3 -157 3 -158 29
0 30 0 0 168 c0 151 -2 171 -18 185 -22 20 -108 23 -115 5 -4 -10 -6 -10 -6 0
-1 7 -15 12 -36 12 l-35 0 0 -185z"/>
<path class="logo-letters-white" d="M2706 598 c-13 -18 -16 -52 -16 -165 0 -174 5 -183 98 -183 82 0 106
15 110 68 3 41 2 42 -27 42 -25 0 -30 -4 -33 -27 -3 -24 -8 -28 -40 -31 l-38
-3 0 60 0 61 76 0 76 0 -3 83 c-5 111 -11 117 -110 117 -69 0 -80 -2 -93 -22z
m134 -83 l0 -55 -40 0 -40 0 0 55 0 55 40 0 40 0 0 -55z"/>
<path class="logo-letters-white" d="M2984 606 c-17 -13 -19 -27 -19 -164 0 -187 2 -192 107 -189 61 2 72
5 89 26 13 15 19 36 17 55 -3 26 -7 30 -33 30 -25 0 -31 -5 -35 -29 -5 -27 -9
-30 -40 -30 l-35 0 0 130 0 130 38 3 c35 3 37 2 37 -27 0 -29 3 -31 35 -31 33
0 35 2 35 35 0 56 -27 75 -108 75 -43 0 -75 -5 -88 -14z"/>
<path class="loading-2" d="M545 601 c-58 -14 -85 -40 -84 -80 0 -20 4 -45 8 -55 6 -16 9 -14 21
15 8 19 34 55 58 82 25 26 41 47 36 46 -5 -1 -23 -4 -39 -8z"/>
<path class="loading-3" d="M593 579 c-43 -27 -42 -43 1 -35 31 6 62 1 136 -20 l25 -7 -25 27
c-27 30 -71 56 -92 56 -7 0 -28 -10 -45 -21z"/>
<path class="loading-1" d="M422 491 c-15 -41 -15 -86 -2 -111 10 -18 76 -47 86 -37 3 2 -6 22
-20 42 -15 21 -31 56 -37 79 -5 22 -11 45 -13 51 -1 5 -8 -6 -14 -24z"/>
<path class="loading-4" d="M705 464 c25 -40 35 -70 35 -98 0 -50 15 -38 28 22 17 75 0 104 -75
126 -21 7 -20 3 12 -50z"/>
<path class="loading-5" d="M691 364 c-7 -20 -31 -54 -53 -75 -35 -34 -38 -39 -19 -39 28 0 97
35 104 53 7 18 -3 97 -12 97 -4 0 -13 -16 -20 -36z"/>
<path class="loading-6" d="M447 327 c15 -28 40 -50 71 -63 31 -13 37 -12 61 6 55 39 56 47 4 43
-27 -2 -69 2 -95 10 -33 10 -46 11 -41 4z"/>
</g>
</svg>
