<svg version="1.0" xmlns="http://www.w3.org/2000/svg"
 width="66.000000pt" height="64.000000pt" viewBox="0 0 66.000000 64.000000"
 preserveAspectRatio="xMidYMid meet">

<g transform="translate(0.000000,64.000000) scale(0.100000,-0.100000)"
fill="#000000" stroke="none">
<path fill="#36633c" d="M224 582 c-76 -27 -102 -47 -114 -90 -9 -36 -1 -124 13 -138 3 -3 17
16 30 43 14 26 52 81 86 120 34 40 61 75 61 78 0 9 -24 5 -76 -13z"/>
<path fill="#437c4b" d="M355 568 c-47 -24 -86 -58 -80 -69 3 -4 31 -5 63 -2 39 4 85 -1 145
-16 49 -12 91 -21 95 -21 13 0 -55 63 -98 89 -63 40 -79 43 -125 19z"/>
<path fill="#51965a" d="M470 439 c0 -6 18 -41 39 -77 38 -63 56 -118 64 -187 l3 -30 17 37
c9 20 20 61 23 92 11 90 -15 129 -107 161 -24 9 -39 10 -39 4z"/>
<path fill="#28492c" d="M36 389 c-34 -113 -19 -169 56 -204 91 -43 95 -37 44 58 -24 45 -50
105 -57 132 -17 72 -25 74 -43 14z"/>
<path fill="#58a362" d="M485 196 c-15 -31 -51 -83 -81 -115 -30 -32 -54 -61 -54 -65 0 -28
161 38 180 75 14 25 8 135 -8 151 -7 7 -19 -9 -37 -46z"/>
<path fill="#63ab6d" d="M89 123 c25 -48 109 -103 156 -103 26 0 110 54 119 78 4 9 -14 12
-72 12 -42 0 -104 7 -137 15 -77 18 -77 18 -66 -2z"/>
</g>
</svg>
